<svg xmlns="http://www.w3.org/2000/svg" viewBox="0 0 687.1 196.03"><defs><style>.cls-1{fill:#fff;}.cls-2,.cls-4{fill:#02e2ac;}.cls-2,.cls-3{stroke:#222221;stroke-width:3.24px;}.cls-2,.cls-3,.cls-4{stroke-linecap:round;stroke-linejoin:round;}.cls-3{fill:#6f3ff5;}.cls-4{font-size:40px;stroke:#fff;stroke-width:1.5px;font-family:AcapelaDEMORegular, AcapelaDEMO;}.cls-5{letter-spacing:-0.01em;}.cls-6{letter-spacing:0.01em;}</style></defs><g id="Graphic_Elements" data-name="Graphic Elements"><path class="cls-1" d="M655.37,61A64.38,64.38,0,0,0,595.7,20.4H81.07A64.15,64.15,0,0,0,25.3,116.23,64.4,64.4,0,0,0,85,156.82H599.61A64.14,64.14,0,0,0,655.37,61Z"/><rect class="cls-2" x="33.14" y="36.61" width="610.48" height="95.85" rx="47.92"/><rect class="cls-3" x="37.05" y="44.76" width="610.48" height="95.85" rx="47.92"/><ellipse class="cls-1" cx="159.1" cy="66.56" rx="7.04" ry="9.73"/><ellipse class="cls-1" cx="69.73" cy="113.79" rx="11.51" ry="15.9"/><ellipse class="cls-1" cx="616.65" cy="117.74" rx="7.04" ry="9.73"/><ellipse class="cls-1" cx="629.89" cy="95.82" rx="11.51" ry="15.9"/><text class="cls-4" transform="translate(82.73 108.11)">Lets throw a Coor<tspan class="cls-5" x="302" y="0">d</tspan><tspan x="322.59" y="0">inat</tspan><tspan class="cls-6" x="377.59" y="0">i</tspan><tspan x="385.91" y="0">on Party</tspan></text></g></svg>